ply
format ascii 1.0
comment Generated by the CGAL library
element vertex 50
property double x
property double y
property double z
end_header
6.7138044908642769 -2.675006752833724 -9.0620317030698061 
-8.769654855132103 8.6341388244181871 0.047749793156981468 
-2.7674585673958063 5.4659392032772303 8.9618516061455011 
-8.6146907322108746 3.2482689432799816 -1.4657212141901255 
7.4160363618284464 -5.0261413212865591 5.1787545438855886 
5.8587344642728567 -2.7884461358189583 -7.4327117763459682 
-1.3335327431559563 4.6906494442373514 1.5845846384763718 
5.2752550039440393 -0.25917872786521912 -7.3338683694601059 
-8.3585856202989817 8.5285873059183359 0.36410875618457794 
8.8805148936808109 9.8764482513070107 8.146431241184473 
-9.0262286830693483 0.55308269336819649 3.7887372169643641 
-2.6320256479084492 -6.1790447775274515 -6.3069735001772642 
6.3708027359098196 3.061906797811389 -1.3637854903936386 
-2.8873783629387617 4.9984569754451513 5.811444241553545 
-4.8710596468299627 9.4478073064237833 -2.3390701040625572 
-9.0329675190150738 -9.007917819544673 7.0026663318276405 
3.8320868834853172 8.0518179852515459 9.0829069726169109 
4.5938596595078707 6.9811226893216372 0.20557410083711147 
1.0354164894670248 4.2646732460707426 0.22944440133869648 
9.2996695544570684 8.3685381524264812 3.9604980871081352 
-6.3201335351914167 3.0834075156599283 -3.1373446248471737 
3.6000051535665989 5.807511443272233 -6.0099631454795599 
-9.6491002198308706 -0.17036839388310909 2.2565449401736259 
6.7351792845875025 -0.54159125313162804 2.2016069851815701 
4.3706431612372398 -6.5395699255168438 1.3473016582429409 
7.7684075757861137 -5.5451304093003273 -0.84402478300035 
-5.345730921253562 9.539300836622715 -5.0992317404597998 
5.8868085872381926 1.2342812400311232 1.6323699709028006 
-9.5739010721445084 -0.22427228279411793 3.4651793446391821 
5.7377726584672928 -0.054718852043151855 8.0122661218047142 
0.68993734195828438 4.328228896483779 -6.8045753985643387 
5.4585856571793556 9.4415684975683689 -8.5579958651214838 
3.3458620961755514 7.0908873993903399 8.0486505664885044 
5.3650726098567247 -7.8437052294611931 2.1681507304310799 
-1.0249059647321701 9.0547155030071735 -3.2790970802307129 
-0.23912305012345314 -7.1237691305577755 1.9517488125711679 
7.8649506624788046 5.6533851195126772 -8.4981056209653616 
-7.4489731341600418 -1.9285262376070023 -1.7073124088346958 
-5.9500070940703154 -9.8976223822683096 4.5470577571541071 
8.1882397271692753 -6.7469197511672974 0.7944743987172842 
4.5693960320204496 5.5064822733402252 -9.7547633480280638 
-8.9765165746212006 -7.5434368941932917 -2.5661007594317198 
6.4544977247714996 5.1617704425007105 -8.6799942422658205 
9.3841824866831303 -7.5730819068849087 3.3176727686077356 
8.0434163939207792 -3.9165167137980461 -3.6627878434956074 
5.8169620390981436 1.9907450117170811 7.0356001798063517 
3.9262847416102886 2.6582230906933546 -1.965394439175725 
0.25117645971477032 2.2035672143101692 4.523209510371089 
6.1174596380442381 2.771289236843586 -2.9618250764906406 
-5.9432471729815006 -4.9099499359726906 5.5031666625291109 
