ply
format ascii 1.0
comment Generated by the CGAL library
element vertex 50
property double x
property double y
property double z
end_header
-4.2608610261231661 6.9110785331577063 9.609019523486495 
9.6933545731008053 6.902501592412591 5.4122901801019907 
-9.4742055796086788 0.48956866376101971 3.1036940310150385 
0.61675269156694412 9.5038219355046749 7.3759191855788231 
-1.7316766828298569 -0.95403874292969704 -6.4580804668366909 
6.9896585959941149 0.40200538001954556 8.6366875842213631 
0.97052194178104401 2.6757136918604374 2.9367148783057928 
-8.3085665572434664 7.126622349023819 -4.5497454144060612 
8.3843065705150366 -0.86174503900110722 -8.0678306147456169 
1.5098283346742392 0.12357749044895172 -5.2045147586613894 
-1.6574298683553934 -2.7855690196156502 -6.4692747499793768 
1.0671865940093994 -1.4063878450542688 -7.0071603823453188 
0.13012101873755455 4.6754097286611795 9.7688802611082792 
2.1708852238953114 5.1148962415754795 8.1502581760287285 
0.15781139023602009 7.2300442587584257 3.9579146727919579 
9.1047863196581602 -7.7990383189171553 0.1895225141197443 
8.1080150883644819 2.597451088950038 -1.1575331352651119 
-8.6935163848102093 7.4567542318254709 -0.3599513228982687 
-7.4492902774363756 -8.6139568313956261 -8.8824291154742241 
7.1003395318984985 0.73632006533443928 -4.8445053212344646 
-1.6055022459477186 -3.980699572712183 -6.3090811856091022 
1.7806451022624969 1.5205879975110292 -1.0643256269395351 
-8.0478376522660255 -7.8176518995314837 0.77937770634889603 
5.8132346998900175 8.2782418467104435 6.6539426520466805 
7.9477529600262642 9.8472400661557913 3.985703457146883 
8.9453683141618967 -2.7330759260803461 -1.2356189358979464 
7.0308346766978502 -7.4443033523857594 4.5435565710067749 
0.73698681779205799 -3.919584508985281 -0.99116552621126175 
-4.5499805361032486 -9.4114096462726593 -0.21007625386118889 
-2.9022051673382521 9.6017004083842039 -6.4802795089781284 
8.8838045764714479 -6.827898845076561 7.9140941798686981 
0.22438583895564079 -0.25966099463403225 -4.2380240932106972 
7.5963334552943707 -2.744999947026372 -8.2572306226938963 
-8.2511228788644075 4.1644323617219925 1.7256257403641939 
2.0119689777493477 6.7472412809729576 -3.8873508665710688 
-1.3592510763555765 -5.3657316975295544 7.1520753111690283 
8.7748234625905752 6.5375982411205769 -7.263905880972743 
-7.0150079112499952 3.4781767707318068 -7.6133152842521667 
-9.3896294292062521 4.4419747125357389 0.95941551961004734 
-5.9111566562205553 2.4896228313446045 -7.8413897287100554 
1.402060566470027 5.8592735696583986 -7.2105902340263128 
7.5218303222209215 0.69698812440037727 3.2574819587171078 
6.5066577028483152 6.5472785569727421 1.9452708400785923 
6.6800921689718962 7.1071002073585987 -3.7465491238981485 
-7.6631665788590908 -3.3543103840202093 9.7744873352348804 
-6.5611780062317848 -5.7696619164198637 1.4189970772713423 
-7.5069241039454937 6.1747803166508675 1.2864826060831547 
-1.2395938765257597 0.71955952793359756 3.4236197173595428 
-2.8083322755992413 -8.9500286243855953 9.0033814497292042 
-7.5475066620856524 -8.2684342656284571 -2.7366803027689457 
